<svg width="200" height="200" viewBox="0 0 200 200" fill="none" xmlns="http://www.w3.org/2000/svg">
  <g opacity="0.1">
    <path d="M40 60C40 60 60 40 100 40C140 40 160 60 160 60C160 60 180 80 180 120C180 160 160 180 160 180C160 180 140 200 100 200C60 200 40 180 40 180C40 180 20 160 20 120C20 80 40 60 40 60Z" stroke="#6366F1" stroke-width="2"/>
    <path d="M60 80C60 80 80 60 120 60C160 60 180 80 180 80C180 80 200 100 200 140C200 180 180 200 180 200C180 200 160 220 120 220C80 220 60 200 60 200C60 200 40 180 40 140C40 100 60 80 60 80Z" stroke="#6366F1" stroke-width="2"/>
  </g>
</svg> 